<svg xmlns="http://www.w3.org/2000/svg" width="144.32" height="56.59" viewBox="0 0 144.32 56.59"><title>logo</title><path d="M10.94,29.37a10.64,10.64,0,0,1-4.78-1,9.85,9.85,0,0,1-3.42-2.72,11.72,11.72,0,0,1-2.06-4A16.38,16.38,0,0,1,0,16.93a14.81,14.81,0,0,1,.61-3.86c.41-1.49.83-2.82,1.27-4A18.32,18.32,0,0,1,3.53,5.79,13.46,13.46,0,0,1,5.84,3a11.09,11.09,0,0,1,3-1.91,9.42,9.42,0,0,1,3.63-.7,8.78,8.78,0,0,1,3,.53A7.43,7.43,0,0,1,18,2.4a6.58,6.58,0,0,1,1.6,2.3,7.54,7.54,0,0,1,.59,3,8.58,8.58,0,0,1-1.19,4,16.11,16.11,0,0,1-2.78,3.78,17.3,17.3,0,0,1-3.77,2.81A20.73,20.73,0,0,1,7.71,20.2a8.1,8.1,0,0,0,.87,1.29,4.07,4.07,0,0,0,.86.8,2.85,2.85,0,0,0,.93.4,4.21,4.21,0,0,0,1,.12,11.18,11.18,0,0,0,3.71-.69,23.94,23.94,0,0,0,3.79-1.72,31.92,31.92,0,0,0,3.49-2.25,30.56,30.56,0,0,0,2.78-2.3L29,19.68a38.34,38.34,0,0,1-5.48,4.86c-.84.61-1.74,1.2-2.71,1.78a23.68,23.68,0,0,1-3,1.56A21.36,21.36,0,0,1,14.42,29,15.08,15.08,0,0,1,10.94,29.37Zm-3.89-14a8.81,8.81,0,0,0,5.43-2.62,8.32,8.32,0,0,0,1.78-2.26,4.19,4.19,0,0,0,.44-2.8C14.14,5.09,11.16,6,9.77,7.4a10.1,10.1,0,0,0-2.48,5.36A16.79,16.79,0,0,0,7,15.41Z" style="fill:#e76f51"/><path d="M35.42,24.05a33.51,33.51,0,0,1,.52-5c.35-2.24,1-5.68,1.42-7.91l-.83,1.19a8.53,8.53,0,0,0-.8,1.33c-2.32,4.52-4.38,9.17-6.67,13.71a3.33,3.33,0,0,1-5.71.87,6.33,6.33,0,0,1-1-3.24,23,23,0,0,1,0-4.23A112.57,112.57,0,0,1,25,5.63c.35-1.44.65-3.69,1.8-4.75a1.89,1.89,0,0,1,.81-.41c1.19-.26,4.05-.62,4.25,1.14a21.86,21.86,0,0,1-.33,6.15c-.15.88-.34,1.75-.54,2.62-.15.66-.49,1.28-.62,2,0,.24-.13.69.07.89s.7-.42.85-.66c.51-.86.87-1.8,1.35-2.68a70.47,70.47,0,0,1,3.74-6.18c1-1.53,2.47-3.34,4.47-3.34A3.24,3.24,0,0,1,43,1.13a2.52,2.52,0,0,1,.88,2.05,16.12,16.12,0,0,1-.15,2.19c-.32,2.44-1.12,4.81-1.68,7.2a1.19,1.19,0,0,0,0,.53c.15,1.06,1-.89,1.12-1.12A65.94,65.94,0,0,1,46.55,6.2a27.57,27.57,0,0,1,3.73-5,2.89,2.89,0,0,1,2-.83,3.72,3.72,0,0,1,2.32.72c1.23.93,1,2.61.91,4a48.05,48.05,0,0,1-.62,5.07C54.57,12.07,54.22,14,54,16a23.25,23.25,0,0,0-.16,3.44,4.43,4.43,0,0,0,.74,2.67,1.48,1.48,0,0,0,1.52.42c1.77-.4,3.23-1.77,4.5-3a33.21,33.21,0,0,0,2.85-3.08l.49,7c0,.33-2.35,1.86-2.68,2.14a18.53,18.53,0,0,1-2.54,1.85,15.78,15.78,0,0,1-5.89,2,3.76,3.76,0,0,1-2.33-.34C47.84,27.56,48,23,48,20.41c0-1.24,0-2.55.13-3.94s.43-4,.59-5.38l-.63,1.1-.06.13L43.26,24.45c-.85,2.13-1.41,4.28-3.95,4.86a3,3,0,0,1-2.63-.55,4.13,4.13,0,0,1-1.16-2.71A14.81,14.81,0,0,1,35.42,24.05Z" style="fill:#e76f51"/><path d="M64.43,56.28a7,7,0,0,1-3.13-1.79,6.82,6.82,0,0,1-1.75-4.79,14,14,0,0,1,2-6.45A48.76,48.76,0,0,1,71.81,30.64,3.38,3.38,0,0,0,73,28.32a15.16,15.16,0,0,0,.33-2,9.88,9.88,0,0,1-6.21,3.09,7.47,7.47,0,0,1-5-1.82A9.61,9.61,0,0,1,59,20.32,14.2,14.2,0,0,1,59.78,16c.38-1.32.83-2.62,1.34-3.9a28.66,28.66,0,0,1,3.74-6.68C67,2.66,70.29,0,73.94,0a13.3,13.3,0,0,1,5.65.94c4.59,2.12,2.8,9,2,12.74a61.14,61.14,0,0,0-1.21,8.07c-.06.84-.12,1.67-.21,2.5A6.32,6.32,0,0,0,80,26.62a15.26,15.26,0,0,0,3.86-3.11,42.28,42.28,0,0,0,5.73-7.76l1.9,6.5A15.9,15.9,0,0,1,88.62,26a31.47,31.47,0,0,1-6.38,5.05A6.5,6.5,0,0,0,80,32.77a7,7,0,0,0-.87,3.2c-.17,1.28-.28,2.57-.43,3.85A51.08,51.08,0,0,1,77.57,47a13.72,13.72,0,0,1-5,7.9A10.26,10.26,0,0,1,64.43,56.28ZM68.7,41.57a33.47,33.47,0,0,0-3.16,6.58c-.65,1.85-.32,2.78,1,2.78a4.1,4.1,0,0,0,1.25-.17,2.62,2.62,0,0,0,1-.63,6.07,6.07,0,0,0,.82-1,8.59,8.59,0,0,0,.75-1.52c.26-.66.5-1.31.71-2s.47-1.48.77-2.53a10.88,10.88,0,0,0,.38-1.87c.09-.67.19-1.51.31-2.5s.2-1.63.23-1.9A16,16,0,0,0,68.7,41.57Zm-1.76-19a2.53,2.53,0,0,0,.31.42,2.25,2.25,0,0,0,1.68.83A3.19,3.19,0,0,0,71.34,22a12.15,12.15,0,0,0,1.51-3.65c.23-1,.34-2,.49-3,.27-1.66.67-3.3,1.07-4.94.19-.82.39-1.64.57-2.46a6.42,6.42,0,0,0,.39-2.13,5.3,5.3,0,0,0-3.82,1.74A15.11,15.11,0,0,0,69,11.1,25.29,25.29,0,0,0,66.74,16a9.85,9.85,0,0,0-.32,5.3A4.85,4.85,0,0,0,66.94,22.57Z" style="fill:#e76f51"/><path d="M111.6,23.25a45.11,45.11,0,0,1,.27-4.93c.21-2.2.43-4.4.72-6.59s.6-4.11,1-6.14l.24-1.12a5.6,5.6,0,0,1,1.6-3.29A3.82,3.82,0,0,1,118,.43a2.75,2.75,0,0,1,1.5.48,2.83,2.83,0,0,1,.94,1.92,13.77,13.77,0,0,1-.16,3.79l-.59,4.28a29.93,29.93,0,0,0-.47,3.89l.75-1.36c.84-1.53,1.45-3.2,2.2-4.79s1.66-3.34,2.6-5a7.17,7.17,0,0,1,2-2.44A5.21,5.21,0,0,1,129.2.41a3.72,3.72,0,0,1,1.84.2,3.23,3.23,0,0,1,1.63,1.78,7.72,7.72,0,0,1,.19,4.1l-1,6.21a31.58,31.58,0,0,0-.58,6.65A5.73,5.73,0,0,0,132,22c.55.91,1.55.78,2.41.37A39.79,39.79,0,0,0,138.12,20c1.36-.84,2.72-1.68,4-2.57a1.74,1.74,0,0,1,1.12-.37,1.09,1.09,0,0,1,.77.49,1.92,1.92,0,0,1,.21,1c.06,1.63.13,3.59-1.11,4.84A7.77,7.77,0,0,1,141,24.79c-.79.39-1.55.85-2.34,1.27-2.6,1.38-5.36,3-8.35,3.29a3,3,0,0,1-2.47-.69A4.89,4.89,0,0,1,126.73,27c-1.59-3.63-1.22-7.78-.72-11.6.14-1.11.27-2.22.46-3.33-.35,0-.42,0-.59.25a6,6,0,0,0-.4.8q-3.06,6.06-6.11,12.12c-.33.65-.63,1.31-1,1.94a4.62,4.62,0,0,1-1.13,1.6,3.09,3.09,0,0,1-1.88.61A3.36,3.36,0,0,1,113.5,29a3.31,3.31,0,0,1-1.37-1.69,7.57,7.57,0,0,1-.46-2.16C111.63,24.47,111.6,23.86,111.6,23.25Z" style="fill:#e76f51"/><path d="M99.21,29.28a10.71,10.71,0,0,1-4.79-1A10,10,0,0,1,91,25.54a11.94,11.94,0,0,1-2-4,16,16,0,0,1-.68-4.72A15,15,0,0,1,88.88,13c.41-1.5.83-2.82,1.27-4a17.8,17.8,0,0,1,1.64-3.3,12.9,12.9,0,0,1,2.32-2.78,10.59,10.59,0,0,1,3-1.9,9.18,9.18,0,0,1,3.66-.71,8.81,8.81,0,0,1,3,.52,7.69,7.69,0,0,1,2.45,1.48,6.63,6.63,0,0,1,1.62,2.3,7.21,7.21,0,0,1,.59,3,8.55,8.55,0,0,1-1.19,4,16.07,16.07,0,0,1-2.77,3.78,17.3,17.3,0,0,1-3.77,2.81A20.81,20.81,0,0,1,96,20.11a10.05,10.05,0,0,0,.87,1.29,3.69,3.69,0,0,0,.87.8,2.8,2.8,0,0,0,.92.4,4.63,4.63,0,0,0,1,.12,11.18,11.18,0,0,0,3.71-.69,24.87,24.87,0,0,0,3.79-1.72,31.92,31.92,0,0,0,3.49-2.25,30.56,30.56,0,0,0,2.78-2.3l3.78,3.84a38.27,38.27,0,0,1-5.48,4.85c-.84.61-1.74,1.2-2.71,1.78A22.13,22.13,0,0,1,106,27.79a21.33,21.33,0,0,1-3.31,1.08A14.59,14.59,0,0,1,99.21,29.28Zm-3.89-14a8.81,8.81,0,0,0,5.43-2.62,8.27,8.27,0,0,0,1.78-2.25A4.37,4.37,0,0,0,103,7.64C102.4,5,99.43,6,98,7.31a10,10,0,0,0-2.48,5.36,15.9,15.9,0,0,0-.28,2.66Z" style="fill:#e76f51"/></svg>
