<svg id="Layer_1" data-name="Layer 1" xmlns="http://www.w3.org/2000/svg" width="144.32" height="56.59" viewBox="0 0 144.32 56.59"><defs><style>.cls-1{fill:#e76f51;}</style></defs><title>logo</title><path class="cls-1" d="M10.94,29.37a10.58,10.58,0,0,1-4.78-1,9.85,9.85,0,0,1-3.42-2.72,11.81,11.81,0,0,1-2.06-4A16.39,16.39,0,0,1,0,16.93a14.94,14.94,0,0,1,.61-3.86c.41-1.49.83-2.82,1.27-4A18.58,18.58,0,0,1,3.53,5.79,13.3,13.3,0,0,1,5.84,3a11.09,11.09,0,0,1,3-1.91A9.39,9.39,0,0,1,12.47.39a8.65,8.65,0,0,1,3,.53A7.47,7.47,0,0,1,18,2.4,6.55,6.55,0,0,1,19.6,4.7a7.45,7.45,0,0,1,.59,3,8.59,8.59,0,0,1-1.19,4,16.09,16.09,0,0,1-2.78,3.78,17.23,17.23,0,0,1-3.77,2.81A20.65,20.65,0,0,1,7.71,20.2a8,8,0,0,0,.87,1.29,4,4,0,0,0,.86.8,2.91,2.91,0,0,0,.93.4,4.3,4.3,0,0,0,1,.12,11.14,11.14,0,0,0,3.71-.69,24.27,24.27,0,0,0,3.79-1.72,32.55,32.55,0,0,0,3.49-2.25,30.67,30.67,0,0,0,2.78-2.3L29,19.68a38.94,38.94,0,0,1-5.48,4.86c-.84.61-1.74,1.2-2.71,1.78a24.15,24.15,0,0,1-3,1.56A21,21,0,0,1,14.42,29,15.12,15.12,0,0,1,10.94,29.37Zm-3.89-14a8.8,8.8,0,0,0,5.43-2.62,8.28,8.28,0,0,0,1.78-2.26,4.21,4.21,0,0,0,.44-2.8C14.14,5.09,11.16,6,9.77,7.4a10.07,10.07,0,0,0-2.48,5.36A16.77,16.77,0,0,0,7,15.41Z"/><path class="cls-1" d="M35.42,24.05a33.51,33.51,0,0,1,.52-5c.35-2.24,1-5.68,1.42-7.91l-.83,1.19a8.82,8.82,0,0,0-.8,1.33c-2.32,4.52-4.38,9.17-6.67,13.71A3.45,3.45,0,0,1,27.7,29a3.5,3.5,0,0,1-4.35-.76,6.35,6.35,0,0,1-1-3.24,22.15,22.15,0,0,1,0-4.23A112.41,112.41,0,0,1,25,5.63c.35-1.44.65-3.69,1.8-4.75a1.83,1.83,0,0,1,.81-.41c1.19-.26,4.05-.62,4.25,1.14a21.9,21.9,0,0,1-.33,6.15c-.15.88-.34,1.75-.54,2.62-.15.66-.49,1.28-.62,2,0,.24-.13.69.07.89s.7-.42.85-.66c.51-.86.87-1.8,1.35-2.68a70.47,70.47,0,0,1,3.74-6.18c1-1.53,2.47-3.34,4.47-3.34a3.23,3.23,0,0,1,2.11.72,2.5,2.5,0,0,1,.88,2.05,15.27,15.27,0,0,1-.15,2.19c-.32,2.44-1.12,4.81-1.68,7.2a1.35,1.35,0,0,0,0,.53c.15,1.06,1-.89,1.12-1.12a65.94,65.94,0,0,1,3.42-5.78,27.54,27.54,0,0,1,3.73-5A2.89,2.89,0,0,1,52.27.37a3.73,3.73,0,0,1,2.32.72c1.23.93,1,2.61.91,4a48.05,48.05,0,0,1-.62,5.07C54.57,12.07,54.22,14,54,16a23.31,23.31,0,0,0-.16,3.44,4.44,4.44,0,0,0,.74,2.67,1.48,1.48,0,0,0,1.52.42c1.77-.4,3.23-1.77,4.5-3a33,33,0,0,0,2.85-3.08l.49,7c0,.33-2.35,1.86-2.68,2.14a19.16,19.16,0,0,1-2.54,1.85,16,16,0,0,1-5.89,2,3.81,3.81,0,0,1-2.33-.34C47.84,27.56,48,23,48,20.41c0-1.24,0-2.55.13-3.94s.43-4,.59-5.38l-.63,1.1-.06.13L43.26,24.45c-.85,2.13-1.41,4.28-3.95,4.86a3,3,0,0,1-2.63-.55,4.15,4.15,0,0,1-1.16-2.71A14.89,14.89,0,0,1,35.42,24.05Z"/><path class="cls-1" d="M64.43,56.28a6.88,6.88,0,0,1-3.13-1.79,6.78,6.78,0,0,1-1.75-4.79,14,14,0,0,1,2-6.45A48.61,48.61,0,0,1,71.81,30.64,3.37,3.37,0,0,0,73,28.32a15,15,0,0,0,.33-2,9.88,9.88,0,0,1-6.21,3.09,7.44,7.44,0,0,1-5-1.82,9.61,9.61,0,0,1-3.17-7.27A14.36,14.36,0,0,1,59.78,16a40.75,40.75,0,0,1,1.34-3.9,28.46,28.46,0,0,1,3.74-6.68C67,2.66,70.29,0,73.94,0a13.3,13.3,0,0,1,5.65.94c4.59,2.12,2.8,9,2,12.74a60.89,60.89,0,0,0-1.21,8.07c-.06.84-.12,1.67-.21,2.5A6.34,6.34,0,0,0,80,26.62a15,15,0,0,0,3.86-3.11,42.28,42.28,0,0,0,5.73-7.76l1.9,6.5A16,16,0,0,1,88.62,26a31.47,31.47,0,0,1-6.38,5.05A6.6,6.6,0,0,0,80,32.77a6.93,6.93,0,0,0-.87,3.2c-.17,1.28-.28,2.57-.43,3.85A51.3,51.3,0,0,1,77.57,47a13.75,13.75,0,0,1-5,7.9A10.28,10.28,0,0,1,64.43,56.28ZM68.7,41.57a33.85,33.85,0,0,0-3.16,6.58c-.65,1.85-.32,2.78,1,2.78a4.29,4.29,0,0,0,1.25-.17,2.67,2.67,0,0,0,1-.63,5.91,5.91,0,0,0,.82-1,9.31,9.31,0,0,0,.75-1.52c.26-.66.5-1.31.71-1.95s.47-1.48.77-2.53a11,11,0,0,0,.38-1.87c.09-.67.19-1.51.31-2.5s.2-1.63.23-1.9A15.87,15.87,0,0,0,68.7,41.57Zm-1.76-19a2.53,2.53,0,0,0,.31.42,2.23,2.23,0,0,0,1.68.83A3.19,3.19,0,0,0,71.34,22a12.15,12.15,0,0,0,1.51-3.65c.23-1,.34-2,.49-3,.27-1.66.67-3.3,1.07-4.94.19-.82.39-1.64.57-2.46a6.61,6.61,0,0,0,.39-2.13,5.28,5.28,0,0,0-3.82,1.74A15.23,15.23,0,0,0,69,11.1,25.23,25.23,0,0,0,66.74,16a9.88,9.88,0,0,0-.32,5.3A5,5,0,0,0,66.94,22.57Z"/><path class="cls-1" d="M111.6,23.25a45.11,45.11,0,0,1,.27-4.93c.21-2.2.43-4.4.72-6.59s.6-4.11,1-6.14l.24-1.12a5.61,5.61,0,0,1,1.6-3.29,3.79,3.79,0,0,1,2.61-.75,2.73,2.73,0,0,1,1.5.48,2.83,2.83,0,0,1,.94,1.92,13.78,13.78,0,0,1-.16,3.79l-.59,4.28a30.14,30.14,0,0,0-.47,3.89l.75-1.36c.84-1.53,1.45-3.2,2.2-4.79s1.66-3.34,2.6-5a7.14,7.14,0,0,1,2-2.44,5.21,5.21,0,0,1,2.39-.79,3.7,3.7,0,0,1,1.84.2,3.2,3.2,0,0,1,1.63,1.78,7.72,7.72,0,0,1,.19,4.1l-1,6.21a31.63,31.63,0,0,0-.58,6.65,5.82,5.82,0,0,0,.67,2.69c.55.91,1.55.78,2.41.37a39.79,39.79,0,0,0,3.76-2.39c1.36-.84,2.72-1.68,4-2.57a1.72,1.72,0,0,1,1.12-.37,1.11,1.11,0,0,1,.77.49,2,2,0,0,1,.21,1c.06,1.63.13,3.59-1.11,4.84A7.63,7.63,0,0,1,141,24.79c-.79.39-1.55.85-2.34,1.27-2.6,1.38-5.36,3-8.35,3.29a3,3,0,0,1-2.47-.69A5,5,0,0,1,126.73,27c-1.59-3.63-1.22-7.78-.72-11.6.14-1.11.27-2.22.46-3.33-.35,0-.42,0-.59.25s-.27.53-.4.8q-3.06,6.06-6.11,12.12c-.33.65-.63,1.31-1,1.94a4.56,4.56,0,0,1-1.13,1.6,3.13,3.13,0,0,1-1.88.61,3.43,3.43,0,0,1-1.86-.43,3.32,3.32,0,0,1-1.37-1.69,7.65,7.65,0,0,1-.46-2.16C111.63,24.47,111.6,23.86,111.6,23.25Z"/><path class="cls-1" d="M99.21,29.28a10.76,10.76,0,0,1-4.79-1A10,10,0,0,1,91,25.54a11.88,11.88,0,0,1-2-4,16,16,0,0,1-.68-4.72A14.87,14.87,0,0,1,88.88,13c.41-1.5.83-2.82,1.27-4A17.89,17.89,0,0,1,91.79,5.7a13,13,0,0,1,2.32-2.78,10.52,10.52,0,0,1,3-1.9,9.18,9.18,0,0,1,3.66-.71,8.68,8.68,0,0,1,3.05.52,7.57,7.57,0,0,1,2.45,1.48,6.75,6.75,0,0,1,1.62,2.3,7.32,7.32,0,0,1,.59,3,8.45,8.45,0,0,1-1.19,4,16.06,16.06,0,0,1-2.77,3.78,17.39,17.39,0,0,1-3.77,2.81A20.55,20.55,0,0,1,96,20.11a9.56,9.56,0,0,0,.87,1.29,3.56,3.56,0,0,0,.87.8,2.77,2.77,0,0,0,.92.4,4.44,4.44,0,0,0,1.05.12,11.14,11.14,0,0,0,3.71-.69,24.69,24.69,0,0,0,3.79-1.72,32,32,0,0,0,3.49-2.25,30.67,30.67,0,0,0,2.78-2.3l3.78,3.84a38.79,38.79,0,0,1-5.48,4.85c-.84.61-1.74,1.2-2.71,1.78A23,23,0,0,1,106,27.79a20.66,20.66,0,0,1-3.31,1.08A14.51,14.51,0,0,1,99.21,29.28Zm-3.89-14a8.8,8.8,0,0,0,5.43-2.62,8.23,8.23,0,0,0,1.78-2.25A4.36,4.36,0,0,0,103,7.64C102.4,5,99.43,6,98,7.31a10,10,0,0,0-2.48,5.36,15.9,15.9,0,0,0-.28,2.66Z"/></svg>